<svg width="30" height="30" viewBox="0 0 30 30" fill="none" xmlns="http://www.w3.org/2000/svg">
<path d="M17.6926 9.81153C17.5678 9.81153 17.443 9.76353 17.3518 9.67234C17.2654 9.58594 17.2126 9.46114 17.2126 9.33155C17.2126 9.20675 17.2654 9.08196 17.3518 8.99556C17.5294 8.81317 17.851 8.81317 18.0334 8.99556C18.1198 9.08676 18.1726 9.20675 18.1726 9.33155C18.1726 9.45634 18.1198 9.58114 18.0334 9.67234C17.9422 9.76353 17.8174 9.81153 17.6926 9.81153Z" fill="black"/>
<path d="M10.8578 24.9737C10.733 24.9737 10.6082 24.9209 10.5218 24.8345C10.4306 24.7434 10.3826 24.6186 10.3826 24.4938C10.3826 24.3642 10.4306 24.2394 10.5218 24.153C10.6994 23.9754 11.0257 23.9754 11.1985 24.153C11.2897 24.2442 11.3377 24.3642 11.3377 24.4938C11.3377 24.6186 11.2897 24.7434 11.1985 24.8345C11.1121 24.9209 10.9873 24.9737 10.8578 24.9737Z" fill="black"/>
<path d="M10.6169 25.1201C10.4446 25.1201 10.278 25.027 10.1921 24.8643C10.0683 24.6296 10.158 24.3392 10.3923 24.2159C17.9136 20.2483 25.0001 11.8611 26.0436 3.42201C26.0762 3.15898 26.3162 2.97371 26.5788 3.00443C26.8418 3.03707 27.029 3.27658 26.9963 3.53961C25.9145 12.2902 18.6393 20.951 10.8406 25.0649C10.7686 25.1024 10.6923 25.1201 10.6169 25.1201Z" fill="black"/>
<path d="M3.48024 26.9994C3.24121 26.9994 3.03482 26.8213 3.00458 26.5784C2.97242 26.3154 3.15913 26.0759 3.42216 26.0432C5.2917 25.8124 8.61702 24.8443 10.3925 24.2155C10.6426 24.1262 10.9171 24.2577 11.0049 24.5073C11.0937 24.7574 10.9627 25.0315 10.7131 25.1198C8.8719 25.7721 5.47841 26.756 3.53976 26.996C3.5196 26.9984 3.49992 26.9994 3.48024 26.9994Z" fill="black"/>
<path d="M9.20481 22.3587C8.97442 22.3587 8.76706 22.3246 8.58179 22.257C8.2338 22.1298 7.96693 21.8821 7.81094 21.5403C7.56855 21.0104 7.6631 20.4249 7.75526 20.0303C7.98565 19.0449 8.48675 18.1497 8.94658 17.4038C10.5612 14.7851 14.3904 11.2495 17.3341 8.9811C17.5439 8.81935 17.8453 8.85823 18.0071 9.06846C18.1688 9.27869 18.13 9.57964 17.9197 9.7414C15.0686 11.9388 11.3167 15.3884 9.76303 17.9078C9.344 18.588 8.8885 19.3977 8.68931 20.2492C8.59523 20.6524 8.59283 20.9442 8.68307 21.141C8.73346 21.2514 8.80162 21.3152 8.91106 21.3551C9.12129 21.4328 9.65983 21.4741 10.8958 20.8909C12.3693 20.1959 13.8693 19.1207 15.6164 17.509C17.2762 15.9773 18.5784 14.5196 19.5974 13.0533C20.0822 12.3554 20.6294 11.5217 21.0109 10.6274C21.2332 10.1071 21.4309 9.55756 21.3705 9.06846C21.3421 8.83855 21.2586 8.76127 21.189 8.71951C20.9207 8.55824 18.9546 8.94517 17.9197 9.7414C17.6711 9.83643 17.3946 9.71261 17.2996 9.46542C17.2045 9.21775 17.3284 8.94032 17.5756 8.84528C18.072 8.34437 20.987 7.47876 21.6834 7.89634C21.9344 8.04706 22.2498 8.35281 22.3237 8.95087C22.4115 9.66556 22.1696 10.3601 21.8946 11.0042C21.4789 11.9776 20.8986 12.8632 20.386 13.6009C19.3267 15.1258 17.9794 16.6349 16.2678 18.2145C14.4467 19.895 12.87 21.0215 11.3057 21.7592C10.4571 22.16 9.76255 22.3587 9.20481 22.3587Z" fill="black"/>
<path d="M3.48129 26.9999C3.46161 26.9999 3.44145 26.9989 3.42177 26.9965C3.15874 26.9639 2.97155 26.7244 3.00418 26.4613C4.52381 14.1699 14.1696 4.5242 26.461 3.00457C26.7249 2.97434 26.9635 3.15961 26.9961 3.42216C27.0283 3.68519 26.8416 3.9247 26.5786 3.95734C14.7249 5.42273 5.42234 14.7253 3.95695 26.5789C3.92719 26.8218 3.72032 26.9999 3.48129 26.9999V26.9999Z" fill="black"/>
<path d="M25.9573 23.7217C25.8344 23.7217 25.7115 23.6746 25.6179 23.581L23.6054 21.5685C23.4177 21.3808 23.4177 21.0775 23.6054 20.8898C23.793 20.7021 24.0964 20.7021 24.284 20.8898L26.2966 22.9023C26.4843 23.09 26.4843 23.3934 26.2966 23.581C26.2025 23.6751 26.0797 23.7217 25.9573 23.7217Z" fill="black"/>
<path d="M23.2417 26.4373C23.1188 26.4373 22.9959 26.3902 22.9023 26.2966L20.8898 24.284C20.7021 24.0964 20.7021 23.793 20.8898 23.6054C21.0775 23.4177 21.3808 23.4177 21.5685 23.6054L23.581 25.6179C23.7687 25.8056 23.7687 26.1089 23.581 26.2966C23.4874 26.3902 23.3646 26.4373 23.2417 26.4373Z" fill="black"/>
<path d="M24.5994 26.9864C23.9808 26.9864 23.3621 26.7565 22.9022 26.2962C22.7146 26.1085 22.7146 25.8052 22.9022 25.6175C23.0899 25.4298 23.3933 25.4298 23.5809 25.6175C24.1324 26.169 25.065 26.169 25.6175 25.6175C26.1695 25.0655 26.1695 24.1329 25.6175 23.5809C25.4298 23.3933 25.4298 23.0894 25.6175 22.9022C25.8052 22.7146 26.1085 22.7146 26.2962 22.9022C27.2163 23.8224 27.2163 25.3765 26.2962 26.2962C25.8364 26.7565 25.2181 26.9864 24.5994 26.9864V26.9864Z" fill="black"/>
<path d="M20.3907 22.2278C20.3815 22.2278 20.3724 22.2278 20.3633 22.2274C20.0988 22.2125 19.8958 21.9859 19.9107 21.7215C19.9649 20.7442 20.7435 19.9657 21.7207 19.9114C21.9909 19.9004 22.2117 20.0996 22.2266 20.3641C22.2415 20.6285 22.0384 20.8551 21.774 20.87C21.2854 20.8973 20.8961 21.2861 20.8692 21.7747C20.8553 22.0296 20.6436 22.2278 20.3907 22.2278V22.2278Z" fill="black"/>
<path d="M21.2297 24.4242C21.1068 24.4242 20.9839 24.3772 20.8903 24.2836C20.215 23.6083 19.8583 22.6742 19.9111 21.721C19.926 21.456 20.1593 21.2549 20.417 21.2683C20.682 21.2832 20.8845 21.5098 20.8697 21.7742C20.8317 22.4553 21.0866 23.1225 21.569 23.6049C21.7567 23.7926 21.7567 24.0959 21.569 24.2836C21.4749 24.3777 21.352 24.4242 21.2297 24.4242V24.4242Z" fill="black"/>
<path d="M23.9443 21.7095C23.8214 21.7095 23.6985 21.6624 23.6049 21.5688C23.1225 21.0865 22.4549 20.8297 21.7742 20.8695C21.516 20.8853 21.2832 20.6818 21.2683 20.4169C21.2535 20.1524 21.456 19.9259 21.721 19.911C22.6747 19.8577 23.6087 20.2148 24.2836 20.8901C24.4713 21.0778 24.4713 21.3812 24.2836 21.5688C24.19 21.6624 24.0671 21.7095 23.9443 21.7095V21.7095Z" fill="black"/>
<path d="M8.7705 6.53577C8.64763 6.53577 8.52475 6.48873 8.43116 6.39513L6.41859 4.38256C6.23091 4.19489 6.23091 3.89154 6.41859 3.70387C6.60626 3.51619 6.90961 3.51619 7.09728 3.70387L9.10985 5.71643C9.29753 5.90411 9.29753 6.20746 9.10985 6.39513C9.01626 6.48873 8.89338 6.53577 8.7705 6.53577Z" fill="black"/>
<path d="M6.05566 9.25049C5.93278 9.25049 5.80991 9.20345 5.71631 9.10985L3.70374 7.09728C3.51607 6.90961 3.51607 6.60626 3.70374 6.41859C3.89142 6.23091 4.19477 6.23091 4.38244 6.41859L6.39501 8.43116C6.58268 8.61883 6.58268 8.92218 6.39501 9.10985C6.30093 9.20393 6.17854 9.25049 6.05566 9.25049V9.25049Z" fill="black"/>
<path d="M4.04287 7.23843C3.92 7.23843 3.79712 7.19139 3.70352 7.09779C2.7834 6.17814 2.7834 4.62396 3.70352 3.70383C4.62317 2.78418 6.17736 2.7837 7.09748 3.70383C7.28516 3.89103 7.28516 4.19485 7.09748 4.38253C6.91029 4.5702 6.60646 4.5702 6.41879 4.38253C5.86633 3.83055 4.9342 3.83103 4.38222 4.38253C3.83024 4.93451 3.83024 5.86712 4.38222 6.4191C4.56989 6.60677 4.56989 6.91012 4.38222 7.09779C4.28862 7.19139 4.16575 7.23843 4.04287 7.23843V7.23843Z" fill="black"/>
<path d="M20.8097 21.2898C20.6869 21.2898 20.564 21.2428 20.4704 21.1492L8.85047 9.52978C8.6628 9.34211 8.6628 9.03876 8.85047 8.85108C9.03815 8.66341 9.34149 8.66341 9.52917 8.85108L21.1491 20.471C21.3367 20.6587 21.3367 20.962 21.1491 21.1497C21.0555 21.2433 20.9326 21.2898 20.8097 21.2898Z" fill="black"/>
<path d="M8.25152 10.09C7.99857 10.09 7.7869 9.89224 7.7725 9.63689C7.75762 9.37242 7.96065 9.14587 8.22512 9.13099C8.71374 9.10363 9.10301 8.71484 9.12989 8.22622C9.14477 7.96127 9.37564 7.75872 9.63579 7.7736C9.90026 7.78848 10.1033 8.01503 10.0884 8.2795C10.0342 9.25674 9.25564 10.0353 8.2784 10.0895C8.26976 10.0895 8.26064 10.09 8.25152 10.09Z" fill="black"/>
<path d="M8.09235 10.0942C7.20439 10.0942 6.34762 9.7414 5.71644 9.11022C5.52877 8.92255 5.52877 8.6192 5.71644 8.43153C5.90411 8.24385 6.20746 8.24385 6.39513 8.43153C6.87752 8.91391 7.54325 9.17022 8.22579 9.13086C8.48978 9.12222 8.71681 9.31854 8.73169 9.58349C8.74657 9.84796 8.54402 10.0745 8.27907 10.0894C8.21667 10.0923 8.15427 10.0942 8.09235 10.0942Z" fill="black"/>
<path d="M9.61036 8.73205C9.60124 8.73205 9.59212 8.73205 9.583 8.73157C9.31805 8.71669 9.11549 8.49014 9.13037 8.22567C9.16829 7.54457 8.91342 6.8774 8.43104 6.39501C8.24336 6.20734 8.24336 5.90399 8.43104 5.71632C8.61871 5.52864 8.92206 5.52864 9.10973 5.71632C9.78507 6.39165 10.1417 7.3257 10.0889 8.27895C10.0745 8.53478 9.86283 8.73205 9.61036 8.73205Z" fill="black"/>
</svg>
