<svg width="32" height="32" viewBox="0 0 32 32" fill="none" xmlns="http://www.w3.org/2000/svg">
<path d="M25.6396 13.3797H25.1953V7.87722C25.1953 6.29075 23.9869 5 22.5015 5H9.16499C7.67969 5 6.47134 6.29075 6.47134 7.87722V13.3797H6.0269C4.5416 13.3797 3.33325 14.6704 3.33325 16.2569V22.5417V24.2177C3.33325 24.6497 3.66118 25 4.06567 25C4.47017 25 4.7981 24.6497 4.7981 24.2177V23.324H26.8684V24.2177C26.8684 24.6497 27.1963 25 27.6008 25C28.0053 25 28.3333 24.6497 28.3333 24.2177V22.5417V16.2569C28.3333 14.6704 27.1249 13.3797 25.6396 13.3797ZM7.93618 7.87722C7.93618 7.15351 8.4874 6.56467 9.16499 6.56467H22.5016C23.1792 6.56467 23.7305 7.15351 23.7305 7.87722V13.3797H20.9749C21.1648 12.9858 21.2728 12.5398 21.2728 12.0671V11.2291C21.2728 9.64264 20.0644 8.35189 18.5791 8.35189H13.0875C11.6022 8.35189 10.3938 9.64264 10.3938 11.2291V12.0671C10.3938 12.5398 10.5018 12.9858 10.6917 13.3797H7.93618V7.87722ZM11.8586 12.0671V11.2291C11.8586 10.5054 12.4099 9.91656 13.0875 9.91656H18.5791C19.2567 9.91656 19.8079 10.5054 19.8079 11.2291V12.0671C19.8079 12.7908 19.2567 13.3797 18.5791 13.3797H13.0875C12.4099 13.3797 11.8586 12.7908 11.8586 12.0671ZM6.0269 14.9443H7.20376H13.0875H18.5791H24.4629H25.6396C26.3172 14.9443 26.8685 15.5332 26.8685 16.2569V18.4075H4.7981V16.2569C4.7981 15.5332 5.34932 14.9443 6.0269 14.9443ZM4.7981 19.9721H26.8684V21.7594H4.7981V19.9721Z" fill="#DFDFDB" stroke="#716D75" stroke-width="0.6"/>
</svg>
