<svg width="30" height="30" viewBox="0 0 30 30" fill="none" xmlns="http://www.w3.org/2000/svg">
<path d="M25.6397 13.3797H25.1953V7.87722C25.1953 6.29075 23.9869 5 22.5016 5H9.16507C7.67976 5 6.47141 6.29075 6.47141 7.87722V13.3797H6.02698C4.54168 13.3797 3.33333 14.6704 3.33333 16.2569V22.5417V24.2177C3.33333 24.6497 3.66126 25 4.06575 25C4.47024 25 4.79817 24.6497 4.79817 24.2177V23.324H26.8685V24.2177C26.8685 24.6497 27.1964 25 27.6009 25C28.0054 25 28.3333 24.6497 28.3333 24.2177V22.5417V16.2569C28.3333 14.6704 27.125 13.3797 25.6397 13.3797ZM7.93626 7.87722C7.93626 7.15351 8.48748 6.56467 9.16507 6.56467H22.5016C23.1793 6.56467 23.7305 7.15351 23.7305 7.87722V13.3797H20.975C21.1649 12.9858 21.2728 12.5398 21.2728 12.0671V11.2291C21.2728 9.64264 20.0645 8.35189 18.5792 8.35189H13.0876C11.6023 8.35189 10.3939 9.64264 10.3939 11.2291V12.0671C10.3939 12.5398 10.5018 12.9858 10.6917 13.3797H7.93626V7.87722ZM11.8587 12.0671V11.2291C11.8587 10.5054 12.41 9.91656 13.0876 9.91656H18.5792C19.2568 9.91656 19.808 10.5054 19.808 11.2291V12.0671C19.808 12.7908 19.2568 13.3797 18.5792 13.3797H13.0876C12.41 13.3797 11.8587 12.7908 11.8587 12.0671ZM6.02698 14.9443H7.20384H13.0876H18.5792H24.463H25.6397C26.3173 14.9443 26.8685 15.5332 26.8685 16.2569V18.4075H4.79817V16.2569C4.79817 15.5332 5.34939 14.9443 6.02698 14.9443ZM4.79817 19.9721H26.8685V21.7594H4.79817V19.9721Z" fill="#1E1D20" stroke="#DFDFDB" stroke-width="0.5"/>
</svg>
