<svg width="38" height="33" viewBox="0 0 38 33" fill="none" xmlns="http://www.w3.org/2000/svg">
<path d="M32.9061 14.701V4.69134C32.9061 2.65593 31.2502 1 29.2148 1H8.78507C6.74967 1 5.09388 2.65593 5.09388 4.69134V14.701C2.74853 15.2652 1 17.3793 1 19.8953V27.3613C1 27.9536 1.48016 28.4338 2.07248 28.4338H5.09381V31.0277C5.09381 31.62 5.57397 32.1001 6.16628 32.1001C6.75859 32.1001 7.23876 31.62 7.23876 31.0277V28.4338H30.7611V31.0277C30.7611 31.62 31.2413 32.1001 31.8336 32.1001C32.4259 32.1001 32.9061 31.62 32.9061 31.0277V28.4338H35.9274C36.5197 28.4338 36.9999 27.9536 36.9999 27.3613V19.8953C37 17.3793 35.2515 15.2652 32.9061 14.701ZM7.23883 4.69134C7.23883 3.83873 7.93253 3.14502 8.78507 3.14502H29.2149C30.0675 3.14502 30.7612 3.83873 30.7612 4.69134V14.5521H27.2171V12.8601C27.2171 10.0567 24.9363 7.77609 22.1331 7.77609H15.8671C13.0637 7.77609 10.7831 10.0568 10.7831 12.8601V14.552H7.23883V4.69134ZM25.0721 12.8601V14.552H12.9279V12.8601C12.9279 11.2395 14.2463 9.92104 15.8669 9.92104H22.133C23.7536 9.92097 25.0721 11.2395 25.0721 12.8601ZM3.14495 26.2888V19.8953C3.14495 18.1318 4.57968 16.6971 6.34319 16.6971H31.6567C33.4202 16.6971 34.8549 18.1318 34.8549 19.8953V26.2888H3.14495Z" fill="#DFDFDB" stroke="#1E1D20"/>
</svg>
