<svg width="24" height="24" viewBox="0 0 24 24" fill="none" xmlns="http://www.w3.org/2000/svg">
<path fill-rule="evenodd" clip-rule="evenodd" d="M5 2.75C4.86193 2.75 4.75 2.86193 4.75 3V20.7679L11.6555 17.1974C11.8716 17.0857 12.1284 17.0857 12.3445 17.1974L19.25 20.7679V3C19.25 2.86192 19.1381 2.75 19 2.75H5ZM3.25 3C3.25 2.0335 4.0335 1.25 5 1.25H19C19.9665 1.25 20.75 2.03351 20.75 3V22C20.75 22.2617 20.6135 22.5045 20.39 22.6406C20.1664 22.7767 19.888 22.7864 19.6555 22.6662L12 18.708L4.34446 22.6662C4.11196 22.7864 3.83361 22.7767 3.61003 22.6406C3.38645 22.5045 3.25 22.2617 3.25 22V3Z" fill="#1E1D20"/>
<path fill-rule="evenodd" clip-rule="evenodd" d="M11.9746 6.22485C12.3888 6.22485 12.7246 6.56064 12.7246 6.97485V12.9749C12.7246 13.3891 12.3888 13.7249 11.9746 13.7249C11.5604 13.7249 11.2246 13.3891 11.2246 12.9749V6.97485C11.2246 6.56064 11.5604 6.22485 11.9746 6.22485Z" fill="#1E1D20"/>
<path fill-rule="evenodd" clip-rule="evenodd" d="M8.22461 9.97485C8.22461 9.56064 8.5604 9.22485 8.97461 9.22485H14.9746C15.3888 9.22485 15.7246 9.56064 15.7246 9.97485C15.7246 10.3891 15.3888 10.7249 14.9746 10.7249H8.97461C8.5604 10.7249 8.22461 10.3891 8.22461 9.97485Z" fill="#1E1D20"/>
</svg>
