<svg width="30" height="30" viewBox="0 0 30 30" fill="none" xmlns="http://www.w3.org/2000/svg">
<g clip-path="url(#clip0_927_21658)">
<path d="M21.244 10.1109L20.923 9.05438C20.5152 7.85426 19.2118 7.21194 18.0117 7.61969C17.3366 7.84907 16.8064 8.37926 16.577 9.05438L16.256 10.1109C15.9859 11.0019 15.9292 11.9439 16.0905 12.8609C16.2376 13.6329 16.7277 14.2961 17.4225 14.6634L17.063 22.6999C17.0149 23.1484 17.1604 23.5963 17.463 23.9309C18.1138 24.6428 19.2186 24.6923 19.9304 24.0414C19.9689 24.0063 20.0058 23.9694 20.041 23.9309C20.3369 23.6058 20.4821 23.1711 20.441 22.7334L20.0795 14.6624C20.7733 14.2949 21.2626 13.6321 21.4095 12.8609C21.5708 11.9439 21.5141 11.0019 21.244 10.1109ZM20.4245 12.6869C20.3162 13.2415 19.921 13.6966 19.387 13.8814C19.1843 13.9576 19.0537 14.1556 19.0635 14.3719L19.4435 22.8124C19.461 22.9779 19.4064 23.143 19.2935 23.2654C18.9924 23.5634 18.5076 23.5634 18.2065 23.2654C18.088 23.1331 18.0342 22.9551 18.0595 22.7794L18.4365 14.3719C18.4462 14.1556 18.3157 13.9576 18.113 13.8814C17.579 13.6966 17.1837 13.2415 17.0755 12.6869C16.9417 11.9256 16.9889 11.1436 17.213 10.4039L17.534 9.34688C17.7824 8.67532 18.5281 8.33226 19.1997 8.58063C19.5548 8.71194 19.8347 8.99188 19.966 9.34688L20.287 10.4039C20.5109 11.1436 20.558 11.9256 20.4245 12.6869Z" fill="#1E1D20"/>
<path d="M13.5 7.5C13.2239 7.5 13 7.72387 13 8V12.293L11.6465 13.6465C11.5464 13.7462 11.4931 13.8838 11.5 14.025L11.9375 22.775C11.9479 22.9637 11.8794 23.1483 11.7485 23.2845C11.4748 23.5606 11.0291 23.5626 10.7529 23.2889C10.7514 23.2874 10.7499 23.2859 10.7485 23.2845C10.6175 23.1483 10.5491 22.9637 10.5595 22.775L11 14.025C11.007 13.8839 10.9539 13.7464 10.854 13.6465L9.5 12.293V8C9.5 7.72387 9.27613 7.5 9 7.5C8.72388 7.5 8.5 7.72387 8.5 8V12.5C8.5 12.6326 8.55275 12.7598 8.6465 12.8535L9.9895 14.197L9.563 22.7265C9.51762 23.6582 10.2361 24.4503 11.1678 24.4957C12.0995 24.5411 12.8916 23.8226 12.937 22.8909C12.9397 22.8361 12.9397 22.7813 12.937 22.7266L12.5105 14.1971L13.8535 12.8536C13.9473 12.7598 14 12.6327 14 12.5001V8.00006C14 7.72388 13.7761 7.5 13.5 7.5Z" fill="#1E1D20"/>
<path d="M10.5 7.5C10.2239 7.5 10 7.72387 10 8V12C10 12.2761 10.2239 12.5 10.5 12.5C10.7761 12.5 11 12.2761 11 12V8C11 7.72387 10.7761 7.5 10.5 7.5Z" fill="#1E1D20"/>
<path d="M12 7.5C11.7239 7.5 11.5 7.72387 11.5 8V12C11.5 12.2761 11.7239 12.5 12 12.5C12.2761 12.5 12.5 12.2761 12.5 12V8C12.5 7.72387 12.2761 7.5 12 7.5Z" fill="#1E1D20"/>
<path d="M15 0C6.71575 0 0 6.71575 0 15C0 23.2843 6.71575 30 15 30C23.2843 30 30 23.2843 30 15C29.9906 6.71963 23.2804 0.009375 15 0ZM15 29C7.268 29 1 22.732 1 15C1 7.268 7.268 1 15 1C22.732 1 29 7.268 29 15C28.9912 22.7283 22.7283 28.9912 15 29Z" fill="#1E1D20"/>
</g>
<defs>
<clipPath id="clip0_927_21658">
<rect width="30" height="30" fill="white"/>
</clipPath>
</defs>
</svg>
