<svg width="20" height="20" viewBox="0 0 20 20" fill="none" xmlns="http://www.w3.org/2000/svg">
<g clip-path="url(#clip0_373_12493)">
<path d="M19.3743 8.49144L11.5086 0.625674C10.6747 -0.208154 9.32499 -0.208311 8.49096 0.625674L0.6252 8.49144C-0.208706 9.32531 -0.208745 10.6752 0.6252 11.5091L8.49096 19.3748C9.32487 20.2087 10.6745 20.2088 11.5086 19.3748L19.3743 11.5091C20.2082 10.6752 20.2083 9.32535 19.3743 8.49144ZM18.4905 10.6252L10.6247 18.491C10.2793 18.8364 9.72028 18.8364 9.37479 18.491L1.50903 10.6252C1.16365 10.2798 1.16361 9.72076 1.50903 9.37526L9.37479 1.50954C9.72024 1.16413 10.2792 1.16409 10.6247 1.50954L18.4905 9.3753C18.4905 9.38632 18.7493 9.58904 18.7493 10.0003C18.7493 10.2364 18.6574 10.4583 18.4905 10.6252Z" fill="black"/>
<path d="M14.584 8.0597C14.535 7.98556 14.686 8.14626 12.3874 5.81172C12.1452 5.56575 11.7495 5.56267 11.5035 5.80488C11.2576 6.04706 11.2545 6.44274 11.4967 6.68867L12.6033 7.8126H6.56247C6.21729 7.8126 5.9375 8.09243 5.9375 8.43757V12.4999C5.9375 12.845 6.21729 13.1249 6.56247 13.1249C6.90765 13.1249 7.18744 12.845 7.18744 12.4999V9.06254H12.536L11.4294 10.1865C11.0393 10.5826 11.3252 11.2499 11.8746 11.2499C12.0362 11.2499 12.1977 11.1877 12.32 11.0635L14.371 8.9804C14.7191 8.78185 14.7649 8.33351 14.584 8.0597Z" fill="black"/>
</g>
<defs>
<clipPath id="clip0_373_12493">
<rect width="20" height="20" fill="white"/>
</clipPath>
</defs>
</svg>
