<svg width="28" height="24" viewBox="0 0 28 24" fill="none" xmlns="http://www.w3.org/2000/svg">
<path d="M8.29117 20.1568C11.1661 22.306 13.7701 23.4055 13.8796 23.4514C13.9197 23.468 13.9623 23.4765 14.0049 23.4765C14.0476 23.4765 14.0902 23.468 14.1303 23.4512C14.2398 23.4055 16.8435 22.306 19.7184 20.1568C22.386 18.1621 25.7725 14.8578 26.7558 10.4425C27.861 5.47825 25.1811 1.95258 22.2234 0.777521C19.1806 -0.431342 16.0037 0.715634 14.0049 3.70129C12.0061 0.715792 8.82927 -0.431976 5.78569 0.777679C2.82843 1.95274 0.149038 5.47841 1.25428 10.4425C2.2367 14.8578 5.62319 18.1621 8.29117 20.1568V20.1568ZM6.02578 1.38163C6.69702 1.11489 7.44855 0.955248 8.23102 0.955248C10.1167 0.955248 12.1809 1.88324 13.7258 4.47583C13.8429 4.6726 14.167 4.6726 14.2841 4.47583C16.4696 0.807195 19.6938 0.471893 21.9835 1.38163C24.6932 2.45815 27.1437 5.70866 26.1213 10.3013C24.4271 17.9104 15.1943 22.2649 14.0049 22.7967C12.8154 22.2649 3.58187 17.9104 1.8887 10.3013C0.866136 5.70882 3.31639 2.45831 6.02578 1.38163V1.38163Z" fill="#1E1D20" stroke="#1E1D20" stroke-width="0.3"/>
<path d="M4.93545 13.0762H7.2286C7.37697 13.1004 7.52471 13.0216 7.58358 12.8819L8.71358 10.1944L10.7882 15.67C10.8376 15.8005 10.9645 15.8854 11.1043 15.8796C11.2438 15.8742 11.3643 15.7806 11.4038 15.6469L13.3878 8.92321L15.491 15.6518C15.5326 15.7846 15.6541 15.8763 15.7933 15.8796C15.796 15.8798 15.7987 15.8798 15.8012 15.8798C15.9372 15.8798 16.0593 15.7949 16.1064 15.6667L17.8603 10.8839L19.3688 14.7952C19.4143 14.9132 19.5242 14.994 19.6505 15.0024C19.775 15.0145 19.8963 14.9455 19.957 14.8345L20.9209 13.0762H23.0744C23.2539 13.0762 23.3994 12.9306 23.3994 12.7512C23.3994 12.5717 23.2539 12.4262 23.0744 12.4262H20.7259C20.5965 12.4262 20.4848 12.5043 20.4325 12.615L19.7235 13.9085L18.156 9.84406C18.1071 9.71774 17.979 9.62587 17.85 9.63602C17.7147 9.63713 17.5942 9.72203 17.5476 9.84914L15.8258 14.544L13.6891 7.70832C13.6466 7.57264 13.5209 7.48029 13.3789 7.48029C13.3781 7.48029 13.3772 7.48029 13.3764 7.48029C13.2332 7.4814 13.1077 7.57597 13.0673 7.71324L11.0537 14.5364L9.03317 9.20345C8.98604 9.0792 8.86798 8.99604 8.73516 8.99366C8.59282 9.00334 8.48126 9.07031 8.42969 9.19266L7.07008 12.4262H4.93545C4.75597 12.4262 4.61046 12.5717 4.61046 12.7512C4.61046 12.9306 4.75597 13.0762 4.93545 13.0762Z" fill="#1E1D20" stroke="#1E1D20" stroke-width="0.3"/>
</svg>
