<svg width="18" height="18" viewBox="0 0 18 18" fill="none" xmlns="http://www.w3.org/2000/svg">
<path d="M13.2331 1.95636C13.8312 0.728127 15.4884 0.433339 16.4719 1.42578C17.4468 2.40944 17.1556 4.05132 15.9279 4.65071C16.3146 5.40819 16.1917 6.36105 15.5584 6.99436L15.1798 7.37291L15.8414 8.03451L15.7707 8.10522L15.8414 8.03451C16.2065 8.39959 16.2065 8.99333 15.8414 9.35838L15.7707 9.28767L15.8414 9.35838L14.7703 10.4295C14.4052 10.7946 13.8115 10.7945 13.4465 10.4296L13.4465 10.4296L13.4464 10.4295L13.5171 10.3588L13.4464 10.4295L13.1705 10.1536C12.0453 12.3774 10.8142 13.5926 8.98505 15.3982C8.70514 15.6745 8.41122 15.9646 8.10153 16.2743C7.07408 17.3018 5.41121 17.3017 4.38386 16.2743L1.67055 13.561C0.643101 12.5335 0.6432 10.8707 1.67055 9.84333C1.9804 9.53347 2.2706 9.23951 2.54688 8.95964C4.35592 7.12714 5.5682 5.89913 7.79126 4.77432L7.4553 4.43836C7.0894 4.07252 7.08951 3.48023 7.45529 3.11448L7.4553 3.11448M13.2331 1.95636L7.52601 3.18519L7.4553 3.11448M13.2331 1.95636C12.4757 1.57018 11.5234 1.69338 10.8904 2.32643L10.5119 2.70495L9.85029 2.04335C9.48521 1.67828 8.89143 1.67831 8.52642 2.04335C8.52642 2.04335 8.52642 2.04336 8.52642 2.04336M13.2331 1.95636L8.52642 2.04336M7.4553 3.11448L8.52642 2.04336M7.4553 3.11448L8.52642 2.04336M3.34974 9.76641C5.18127 7.91037 6.37955 6.69605 8.64169 5.62481L12.32 9.30313C11.2479 11.567 10.0314 12.7672 8.18181 14.5919C7.9018 14.8681 7.6073 15.1586 7.29659 15.4694C6.71402 16.0519 5.77137 16.0519 5.18878 15.4694L2.47546 12.756C1.89293 12.1735 1.89291 11.2308 2.47547 10.6482C2.78502 10.3387 3.07453 10.0453 3.34974 9.76641ZM15.1667 3.7089L15.1667 3.7089C14.5708 3.79389 14.3282 4.52284 14.7534 4.94807C15.0956 5.29025 15.0956 5.84724 14.7534 6.18942L14.3749 6.56797L11.3168 3.5099L11.6954 3.13134C12.0375 2.78917 12.5946 2.78923 12.9367 3.13135C13.3627 3.55739 14.0905 3.31235 14.176 2.71689C14.2778 2.00991 15.1528 1.71186 15.6634 2.22709L15.7344 2.1567L15.6634 2.22709C16.1549 2.72296 15.8864 3.60632 15.1667 3.7089ZM14.1084 9.48156L8.40324 3.77643L9.18837 2.9913L14.8935 8.69643L14.1084 9.48156Z" fill="#1E1D20" stroke="#1E1D20" stroke-width="0.2"/>
<path d="M7.0663 9.8774C6.8831 9.6942 6.58604 9.69417 6.40281 9.8774C6.21957 10.0606 6.21957 10.3577 6.40281 10.5409L7.40358 11.5417C7.4952 11.6334 7.61525 11.6791 7.73533 11.6791C8.14956 11.6791 8.36351 11.1747 8.06711 10.8782L7.0663 9.8774Z" fill="black"/>
<path d="M7.9487 8.33181C7.76547 8.51504 7.76547 8.8121 7.9487 8.99534L8.94948 9.99615C9.0411 10.0878 9.16115 10.1336 9.28123 10.1336C9.69543 10.1336 9.90947 9.62908 9.61298 9.33262L8.6122 8.33181C8.429 8.14858 8.13194 8.14861 7.9487 8.33181Z" fill="black"/>
<path d="M5.52019 11.4239C5.33699 11.2407 5.0399 11.2407 4.85666 11.4239C4.67343 11.6072 4.67343 11.9042 4.85666 12.0875L5.85744 13.0882C5.94906 13.1798 6.06911 13.2256 6.18919 13.2256C6.60336 13.2256 6.8174 12.7212 6.52094 12.4247L5.52019 11.4239Z" fill="black"/>
</svg>
