<svg width="24" height="25" viewBox="0 0 24 25" fill="none" xmlns="http://www.w3.org/2000/svg">
<path d="M17.1798 11.3729L17.8414 12.0345L17.7751 12.1008L17.8414 12.0345C18.2065 12.3996 18.2065 12.9933 17.8415 13.3584L17.7707 13.2877L17.8414 13.3584L16.7703 14.4295C16.4052 14.7946 15.8115 14.7945 15.4465 14.4296L15.4465 14.4296L15.4464 14.4295L15.5171 14.3588L15.4464 14.4295L15.1705 14.1536C14.0453 16.3774 12.8142 17.5926 10.9851 19.3982C10.7051 19.6745 10.4112 19.9646 10.1015 20.2743C9.07408 21.3018 7.41121 21.3017 6.38386 20.2743L3.67055 17.561C2.6431 16.5335 2.6432 14.8707 3.67055 13.8433C3.9804 13.5335 4.2706 13.2395 4.54689 12.9596C6.35592 11.1271 7.5682 9.89913 9.79126 8.77432L9.4553 8.43835C9.4553 8.43835 9.4553 8.43835 9.45529 8.43835C9.0894 8.07251 9.08951 7.48023 9.45529 7.11448L9.4553 7.11448M17.1798 11.3729L11.7796 6.11406C11.4536 5.78804 10.9231 5.78807 10.5971 6.11406L9.52601 7.18519L9.4553 7.11448M17.1798 11.3729L17.5584 10.9944C18.1917 10.361 18.3146 9.40819 17.9279 8.65072C19.1556 8.05132 19.4468 6.40944 18.4719 5.42578C17.4884 4.43334 15.8312 4.72813 15.2331 5.95636C14.4757 5.57018 13.5234 5.69338 12.8904 6.32643L12.5119 6.70495M17.1798 11.3729L12.5119 6.70495M9.4553 7.11448L10.5264 6.04336C10.5264 6.04336 10.5264 6.04335 10.5264 6.04335C10.8914 5.67831 11.4852 5.67828 11.8503 6.04335L12.5119 6.70495M9.4553 7.11448L12.5119 6.70495M5.34974 13.7664C7.18127 11.9104 8.37955 10.696 10.6417 9.62481L14.32 13.3031C13.2479 15.567 12.0314 16.7672 10.1818 18.5919C9.9018 18.8681 9.6073 19.1586 9.29659 19.4694C8.71402 20.0519 7.77137 20.0519 7.18878 19.4694L4.47546 16.756C3.89293 16.1735 3.89291 15.2308 4.47547 14.6482C4.78502 14.3387 5.07453 14.0453 5.34974 13.7664ZM17.1667 7.7089L17.1667 7.7089C16.5708 7.79389 16.3282 8.52284 16.7534 8.94807C17.0956 9.29025 17.0956 9.84724 16.7534 10.1894L16.3749 10.568L13.3168 7.5099L13.6954 7.13134C14.0375 6.78917 14.5946 6.78923 14.9367 7.13135C15.3627 7.55739 16.0905 7.31235 16.176 6.71689C16.2778 6.00991 17.1528 5.71186 17.6634 6.22709L17.7344 6.1567L17.6634 6.22709C18.1549 6.72296 17.8864 7.60632 17.1667 7.7089ZM16.1084 13.4816L10.4032 7.77643L11.1884 6.9913L16.8935 12.6964L16.1084 13.4816Z" fill="#1E1D20" stroke="#1E1D20" stroke-width="0.2"/>
<path d="M9.0663 13.8774C8.8831 13.6942 8.58604 13.6942 8.40281 13.8774C8.21957 14.0606 8.21957 14.3577 8.40281 14.5409L9.40358 15.5417C9.4952 15.6334 9.61525 15.6791 9.73533 15.6791C10.1496 15.6791 10.3635 15.1747 10.0671 14.8782L9.0663 13.8774Z" fill="black"/>
<path d="M9.9487 12.3318C9.76547 12.515 9.76547 12.8121 9.9487 12.9953L10.9495 13.9961C11.0411 14.0878 11.1611 14.1336 11.2812 14.1336C11.6954 14.1336 11.9095 13.6291 11.613 13.3326L10.6122 12.3318C10.429 12.1486 10.1319 12.1486 9.9487 12.3318V12.3318Z" fill="black"/>
<path d="M7.52019 15.4239C7.33699 15.2407 7.0399 15.2407 6.85666 15.4239C6.67343 15.6072 6.67343 15.9042 6.85666 16.0875L7.85744 17.0882C7.94906 17.1798 8.06911 17.2256 8.18919 17.2256C8.60336 17.2256 8.8174 16.7212 8.52094 16.4247L7.52019 15.4239Z" fill="black"/>
</svg>
