<svg width="32" height="32" viewBox="0 0 32 32" fill="none" xmlns="http://www.w3.org/2000/svg">
<path d="M21.1447 6.14345H7.40004C7.21357 6.14345 7.06245 6.29457 7.06245 6.48104V18.8874C7.06245 19.0739 7.21357 19.225 7.40004 19.225C7.58651 19.225 7.73763 19.0739 7.73763 18.8874V11.9965H20.8072V24.1812H19.3537C19.5823 23.8869 19.7189 23.5177 19.7189 23.1171V20.0059C19.7189 19.8484 19.7101 19.6917 19.6933 19.5361C19.6927 19.5294 19.692 19.5229 19.6911 19.5163C19.5811 18.5396 19.146 17.6144 18.4563 16.9078V15.0709V13.9735C18.4563 13.5296 18.0952 13.1685 17.6513 13.1685H16.8061C16.3622 13.1685 16.0011 13.5296 16.0011 13.9735V15.0709V16.9077C15.3116 17.6141 14.8765 18.5388 14.7664 19.5153C14.7654 19.5224 14.7646 19.5295 14.764 19.5367C14.7473 19.6921 14.7385 19.8486 14.7385 20.0058V23.117C14.7385 23.5177 14.8751 23.8868 15.1037 24.1812H13.4631C13.6918 23.8868 13.8284 23.5177 13.8284 23.117V18.6766C13.8284 18.28 13.6127 17.7662 13.4198 17.386H13.4908C13.6772 17.386 13.8284 17.2348 13.8284 17.0484C13.8284 16.8619 13.6772 16.7108 13.4908 16.7108H12.8437H9.82164H9.17455C8.98807 16.7108 8.83696 16.8619 8.83696 17.0484C8.83696 17.2348 8.98807 17.386 9.17455 17.386H9.24548C9.05263 17.7662 8.83696 18.28 8.83696 18.6766V23.117C8.83696 23.5177 8.97356 23.8868 9.20217 24.1812H7.73758V20.2377C7.73758 20.0512 7.58647 19.9001 7.4 19.9001C7.21353 19.9001 7.06241 20.0512 7.06241 20.2377V24.5187C7.06241 24.7052 7.21353 24.8563 7.4 24.8563H10.5775H12.0878H16.4789H17.9784H21.1447C21.3311 24.8563 21.4822 24.7052 21.4822 24.5187V6.48104C21.4823 6.29457 21.3312 6.14345 21.1447 6.14345ZM15.4136 20.0058C15.4136 19.9705 15.4153 19.9354 15.4164 19.9001H19.0411C19.042 19.9354 19.0438 19.9705 19.0438 20.0058V22.1714H15.4137V20.0058H15.4136ZM16.6762 13.9735C16.6762 13.9019 16.7345 13.8436 16.8061 13.8436H17.6513C17.7229 13.8436 17.7811 13.9019 17.7811 13.9735V14.7333H16.6762V13.9735H16.6762ZM16.5722 17.2922C16.6386 17.2285 16.6762 17.1404 16.6762 17.0484V15.4085H17.7812V17.0484C17.7812 17.1404 17.8188 17.2285 17.8852 17.2922C18.4309 17.815 18.8035 18.4938 18.9602 19.225H15.4972C15.6538 18.4938 16.0265 17.815 16.5722 17.2922ZM9.51213 19.9001H13.1532V22.1715H9.51213V19.9001ZM12.6526 17.386C12.8762 17.7742 13.1532 18.3595 13.1532 18.6766V19.225H9.51213V18.6766C9.51213 18.3595 9.78917 17.7741 10.0127 17.386H12.6526ZM10.5775 24.1812C9.9901 24.1812 9.51218 23.7038 9.51218 23.117V22.8466H13.1532V23.117C13.1532 23.7038 12.6753 24.1812 12.0879 24.1812H10.5775ZM16.4789 24.1812C15.8915 24.1812 15.4136 23.7038 15.4136 23.117V22.8466H19.0437V23.117C19.0437 23.7038 18.5658 24.1812 17.9784 24.1812H16.4789ZM9.26969 9.88027C9.26969 9.0857 9.91679 8.43932 10.7122 8.43932C11.5077 8.43932 12.1548 9.0857 12.1548 9.88027C12.1548 10.6749 11.5077 11.3213 10.7122 11.3213C9.91679 11.3213 9.26969 10.6749 9.26969 9.88027ZM17.8325 11.3213C17.0371 11.3213 16.39 10.6749 16.39 9.88027C16.39 9.0857 17.0371 8.43932 17.8325 8.43932C18.6279 8.43932 19.275 9.0857 19.275 9.88027C19.275 10.6749 18.6279 11.3213 17.8325 11.3213ZM16.2837 11.3213H15.8212C15.9068 11.2295 15.9841 11.1301 16.0524 11.0243C16.1208 11.1301 16.1981 11.2295 16.2837 11.3213ZM14.2724 11.3213C13.477 11.3213 12.8298 10.6749 12.8298 9.88027C12.8298 9.0857 13.4769 8.43932 14.2724 8.43932C15.0678 8.43932 15.7149 9.0857 15.7149 9.88027C15.7149 10.6749 15.0678 11.3213 14.2724 11.3213ZM12.7235 11.3213H12.261C12.3466 11.2295 12.4239 11.1301 12.4923 11.0243C12.5606 11.1301 12.638 11.2295 12.7235 11.3213ZM19.3814 11.3213C19.7339 10.9432 19.9502 10.4366 19.9502 9.88027C19.9502 8.71343 19.0002 7.76414 17.8325 7.76414C17.0865 7.76414 16.4297 8.15204 16.0524 8.7362C15.6751 8.15199 15.0184 7.76414 14.2724 7.76414C13.5263 7.76414 12.8696 8.15204 12.4923 8.7362C12.115 8.15199 11.4583 7.76414 10.7122 7.76414C9.54457 7.76414 8.59456 8.71343 8.59456 9.88027C8.59456 10.4366 8.81086 10.9432 9.16336 11.3213H7.73758V6.81862H20.8071V11.3213H19.3814Z" fill="#DFDFDB"/>
<path d="M10.4771 9.54291H9.95993C9.77346 9.54291 9.62234 9.69402 9.62234 9.8805C9.62234 10.067 9.77346 10.2181 9.95993 10.2181H10.4771C10.6635 10.2181 10.8147 10.067 10.8147 9.8805C10.8146 9.69407 10.6635 9.54291 10.4771 9.54291Z" fill="#DFDFDB"/>
<path d="M14.0372 9.54291H13.5201C13.3336 9.54291 13.1825 9.69402 13.1825 9.8805C13.1825 10.067 13.3336 10.2181 13.5201 10.2181H14.0372C14.2237 10.2181 14.3748 10.067 14.3748 9.8805C14.3748 9.69407 14.2237 9.54291 14.0372 9.54291Z" fill="#DFDFDB"/>
<path d="M17.5974 9.54291H17.0803C16.8938 9.54291 16.7427 9.69402 16.7427 9.8805C16.7427 10.067 16.8938 10.2181 17.0803 10.2181H17.5974C17.7839 10.2181 17.935 10.067 17.935 9.8805C17.9349 9.69407 17.7838 9.54291 17.5974 9.54291Z" fill="#DFDFDB"/>
<path d="M27.6624 19.4573C27.8489 19.4573 28 19.3062 28 19.1198V5.73987C28 4.78052 27.2195 4 26.2601 4H24.8903C24.7038 4 24.5527 4.15112 24.5527 4.33759V6.14354H23.5447V5.73987C23.5447 4.78052 22.7642 4 21.8049 4H6.73987C5.78052 4 5 4.78052 5 5.73987V25.2601C5 26.2195 5.78052 27 6.73987 27H21.8049C22.7642 27 23.5447 26.2195 23.5447 25.2601V24.8565H24.5527V26.6624C24.5527 26.8489 24.7038 27 24.8903 27H26.2601C27.2195 27 28 26.2195 28 25.2601V20.4701C28 20.2836 27.8489 20.1325 27.6624 20.1325C27.4759 20.1325 27.3248 20.2836 27.3248 20.4701V25.2601C27.3248 25.8472 26.8472 26.3249 26.2601 26.3249H25.2279V4.67513H26.2601C26.8472 4.67513 27.3249 5.15274 27.3249 5.73982V19.1197C27.3249 19.3062 27.476 19.4573 27.6624 19.4573ZM24.5527 6.81871V9.8902H23.5447V6.81871H24.5527ZM22.8696 25.2601C22.8696 25.8472 22.392 26.3249 21.8049 26.3249H6.73987C6.15279 26.3249 5.67518 25.8473 5.67518 25.2601V5.73987C5.67518 5.15279 6.15279 4.67518 6.73987 4.67518H21.8049C22.392 4.67518 22.8696 5.15279 22.8696 5.73987V12.831C22.8696 13.0175 23.0207 13.1686 23.2072 13.1686C23.3937 13.1686 23.5448 13.0175 23.5448 12.831V10.5653H24.5527V20.169H23.5448V14.1813C23.5448 13.9948 23.3937 13.8437 23.2072 13.8437C23.0207 13.8437 22.8696 13.9948 22.8696 14.1813V25.2601ZM23.5447 24.1813V20.8441H24.5527V24.1813H23.5447Z" fill="#DFDFDB"/>
</svg>
