<svg width="68" height="52" viewBox="0 0 68 52" fill="none" xmlns="http://www.w3.org/2000/svg">
<path d="M64.125 13.4999C65.9889 13.4999 67.5 11.9888 67.5 10.1249C67.5 8.26097 65.989 6.74987 64.125 6.74987H56.25V4.49995C56.25 2.01472 54.2353 0 51.7501 0H42.75C40.2648 0 38.2501 2.01472 38.2501 4.49995H7.87509C3.52806 4.50549 0.00553711 8.02802 0 12.3749V43.8749C0.00553711 48.2218 3.52806 51.7443 7.87496 51.7498H40.5C44.8469 51.7443 48.3694 48.2218 48.375 43.8749V31.4998H51.75C54.2352 31.4998 56.2499 29.4851 56.2499 26.9999V24.7498H64.125C65.9889 24.7498 67.5 23.2387 67.5 21.3748C67.5 19.5108 65.989 17.9998 64.125 17.9998H56.25V13.4999H64.125ZM2.25004 16.8749H6.75V19.1249H2.25004V16.8749ZM2.25004 26.9999H6.75V29.2499H2.25004V26.9999ZM2.25004 37.1249H6.75V39.3749H2.25004V37.1249ZM46.125 43.8749C46.1214 46.9799 43.6051 49.4961 40.5 49.4999H7.87496C4.76996 49.4962 2.25374 46.98 2.24991 43.8749V41.6248H6.75C7.99269 41.6248 9.00004 40.6175 9.00004 39.3748V37.1247C9.00004 35.882 7.99269 34.8747 6.75 34.8747H2.25004V31.4997H6.75C7.99269 31.4997 9.00004 30.4923 9.00004 29.2496V26.9996C9.00004 25.7569 7.99269 24.7496 6.75 24.7496H2.25004V21.3746H6.75C7.99269 21.3746 9.00004 20.3672 9.00004 19.1245V16.8745C9.00004 15.6318 7.99269 14.6244 6.75 14.6244H2.25004V12.3749C2.25374 9.26991 4.76996 6.75369 7.87509 6.74987H38.2501V26.9999C38.2501 29.4851 40.2648 31.4998 42.75 31.4998H46.125V43.8749ZM54 26.9999C54 28.2425 52.9926 29.2499 51.75 29.2499H42.7499C41.5072 29.2499 40.4999 28.2425 40.4999 26.9999V4.49995C40.4999 3.25727 41.5072 2.24991 42.7499 2.24991H51.75C52.9926 2.24991 54 3.25727 54 4.49995V26.9999ZM64.125 8.99991C64.7463 8.99991 65.25 9.50366 65.25 10.1249C65.25 10.7461 64.7463 11.2498 64.125 11.2498H56.25V8.99991H64.125ZM64.125 20.2499C64.7463 20.2499 65.25 20.7536 65.25 21.3748C65.25 21.9962 64.7463 22.4998 64.125 22.4998H56.25V20.2497H64.125V20.2499Z" fill="#DFDFDB"/>
</svg>
