<svg width="32" height="32" viewBox="0 0 32 32" fill="none" xmlns="http://www.w3.org/2000/svg">
<path d="M17.7561 22.135H7.31705C7.11269 22.135 6.94702 22.3007 6.94702 22.505C6.94702 22.7094 7.11269 22.875 7.31705 22.875H17.7561C18.0904 22.875 18.3728 23.2252 18.3728 23.6398C18.3728 23.858 18.3148 24.1085 17.8623 24.1085H15.0843C14.88 24.1085 14.7143 24.2741 14.7143 24.4785C14.7143 24.6828 14.88 24.8485 15.0843 24.8485H17.8623C18.622 24.8485 19.1129 24.374 19.1129 23.6398C19.1129 22.81 18.5042 22.135 17.7561 22.135Z" fill="#DFDFDB"/>
<path d="M26.9864 10.4998C26.8129 10.3053 26.639 10.1417 26.4774 10.006C26.5129 9.94923 26.5337 9.88228 26.5337 9.81034V6.11008C26.5337 5.49796 26.0358 5 25.4237 5H22.4635C21.8513 5 21.3534 5.49796 21.3534 6.11008V9.81034C21.3534 9.88228 21.3742 9.94918 21.4098 10.006C21.2481 10.1417 21.0742 10.3053 20.9008 10.4998C20.6834 10.7434 20.4505 11.0548 20.244 11.439C19.8936 10.7875 19.4526 10.3202 19.0773 10.0054C19.1125 9.94869 19.1333 9.88203 19.1333 9.81039V6.11013C19.1333 5.49801 18.6353 5.00005 18.0232 5.00005H15.063C14.4509 5.00005 13.9529 5.49801 13.9529 6.11013V9.81039C13.9529 9.88149 13.9733 9.94765 14.0081 10.004C13.3386 10.5641 12.4598 11.6065 12.2648 13.3122C12.2416 13.5152 12.3873 13.6987 12.5904 13.7219C12.6047 13.7235 12.6189 13.7243 12.6329 13.7243C12.8184 13.7243 12.9785 13.5851 13.0001 13.3963C13.2426 11.2746 14.7068 10.3643 15.0458 10.1805H18.0397C18.3122 10.33 19.3594 10.9813 19.8553 12.3838C19.7152 12.853 19.6266 13.3915 19.6266 14.0041V15.0557C19.6266 15.2601 19.7923 15.4258 19.9967 15.4258C20.201 15.4258 20.3667 15.2601 20.3667 15.0557V14.0041C20.3667 11.446 22.0747 10.3816 22.4462 10.1805H25.44C25.8007 10.3791 27.5205 11.4602 27.5205 14.0041V19.9875C27.5205 20.1918 27.6862 20.3575 27.8906 20.3575C28.0949 20.3575 28.2606 20.1918 28.2606 19.9875V14.004C28.2605 12.288 27.5676 11.1512 26.9864 10.4998ZM14.6929 9.44032V7.3659C14.8275 7.39299 14.9826 7.41198 15.1558 7.41198C15.4369 7.41198 15.7643 7.36269 16.1229 7.22016H18.3932V9.44032H14.6929ZM15.0629 5.74005H18.0231C18.2272 5.74005 18.3932 5.90602 18.3932 6.11008V6.48011H16.0497C15.9996 6.48011 15.9501 6.49027 15.9041 6.50996C15.3557 6.7446 14.9221 6.6774 14.6929 6.60606V6.11008C14.6929 5.90602 14.8589 5.74005 15.0629 5.74005ZM22.0934 9.44032V7.3659C22.2281 7.39299 22.3831 7.41198 22.5564 7.41198C22.8374 7.41198 23.1649 7.36269 23.5235 7.22016H25.7937V9.44032H22.0934ZM22.4635 5.74005H25.4237C25.6277 5.74005 25.7937 5.90602 25.7937 6.11008V6.48011H23.4502C23.4001 6.48011 23.3506 6.49027 23.3046 6.50996C22.7563 6.7446 22.3226 6.6774 22.0934 6.60606V6.11008C22.0934 5.90602 22.2594 5.74005 22.4635 5.74005Z" fill="#DFDFDB"/>
<path d="M27.8905 21.0975C27.6862 21.0975 27.5205 21.2632 27.5205 21.4675V24.2318C27.5205 24.4359 27.3545 24.6019 27.1505 24.6019H21.0053C21.0586 24.3609 21.0863 24.1054 21.0863 23.8371C21.0863 23.0544 20.827 22.2633 20.3666 21.616V16.5358C20.3666 16.3314 20.201 16.1658 19.9966 16.1658C19.7923 16.1658 19.6266 16.3314 19.6266 16.5358V20.842C19.3243 20.6085 18.9914 20.4326 18.6383 20.318C18.7532 20.1055 18.8168 19.8432 18.8168 19.5448C18.8168 18.7713 18.2695 18.1881 17.5437 18.1881H17.2714C17.3664 18.0029 17.4203 17.7934 17.4203 17.5714V16.7526C17.4203 15.8773 16.8237 15.1344 15.9694 14.946C15.0218 14.7369 13.6094 14.4878 12.262 14.4878C10.9146 14.4878 9.50217 14.7369 8.5546 14.9459C7.70029 15.1343 7.10361 15.8772 7.10361 16.7525V17.5713C7.10361 17.8123 7.16705 18.0386 7.27767 18.2349C6.20637 18.3809 5.21608 18.8662 4.4369 19.6379C3.52382 20.5424 3.00006 21.7672 3.00006 22.9984C3.00006 24.0675 3.38578 25.046 4.08611 25.7536C4.768 26.4426 5.68453 26.822 6.66702 26.822H17.9685C18.8758 26.822 19.6501 26.5476 20.2076 26.0284C20.4217 25.8291 20.5981 25.5988 20.7353 25.3419H27.1505C27.7626 25.3419 28.2605 24.844 28.2605 24.2318V21.4675C28.2605 21.2631 28.0949 21.0975 27.8905 21.0975ZM17.9685 26.082H6.66697C4.9984 26.082 3.74011 24.7563 3.74011 22.9984C3.74011 21.9634 4.18395 20.9302 4.95775 20.1638C5.76228 19.367 6.83097 18.9281 7.9671 18.9281H9.58155C9.7859 18.9281 9.95158 18.7625 9.95158 18.5581C9.95158 18.3538 9.7859 18.1881 9.58155 18.1881H8.46047C8.12039 18.1881 7.84376 17.9114 7.84376 17.5714V16.7526C7.84376 16.2274 8.20165 15.7817 8.71411 15.6686C9.62576 15.4675 10.9813 15.2279 12.2621 15.2279C13.5428 15.2279 14.8984 15.4675 15.8101 15.6687C16.3225 15.7817 16.6804 16.2274 16.6804 16.7526V17.5714C16.6804 17.9115 16.4038 18.1881 16.0637 18.1881H11.0617C10.8573 18.1881 10.6916 18.3538 10.6916 18.5582C10.6916 18.7625 10.8573 18.9282 11.0617 18.9282H17.5437C17.9099 18.9282 18.0768 19.2478 18.0768 19.5449C18.0768 19.8263 18.0027 20.1616 17.6499 20.1616H7.64207C7.00498 20.1616 6.34698 20.4245 5.83683 20.8828C5.28012 21.3828 4.97354 22.0466 4.97354 22.7517C4.97354 23.7435 5.80249 24.8486 6.99201 24.8486H13.6042C13.8086 24.8486 13.9743 24.6829 13.9743 24.4785C13.9743 24.2742 13.8086 24.1085 13.6042 24.1085H6.99201C6.26029 24.1085 5.71359 23.3922 5.71359 22.7517C5.71359 21.6928 6.73175 20.9016 7.64207 20.9016H17.6499C19.2628 20.9016 20.3463 22.4195 20.3463 23.8371C20.3463 25.2218 19.4352 26.082 17.9685 26.082Z" fill="#DFDFDB"/>
</svg>
