<svg width="24" height="24" viewBox="0 0 24 24" fill="none" xmlns="http://www.w3.org/2000/svg">
<path d="M21.1735 1.14626C21.0435 1.02202 20.8811 0.922157 20.6979 0.853699C20.5147 0.78524 20.315 0.749846 20.113 0.750002H12.1885C11.8582 0.749523 11.5384 0.843057 11.2859 1.014C11.0333 1.18495 10.8643 1.42225 10.8089 1.68379L8.67532 11.625H4.86719C4.37215 11.6255 3.89755 11.7836 3.54751 12.0648C3.19746 12.346 3.00056 12.7273 3 13.125V22.875C3 22.9745 3.04918 23.0698 3.13672 23.1402C3.22426 23.2105 3.34299 23.25 3.4668 23.25H4.86719C4.98053 23.25 5.09 23.2169 5.17518 23.1568C5.26035 23.0967 5.3154 23.0138 5.33005 22.9235L6.67743 14.625H10.9355V22.875C10.9355 22.9745 10.9847 23.0698 11.0723 23.1402C11.1598 23.2105 11.2785 23.25 11.4023 23.25H12.8027C12.9161 23.25 13.0255 23.2169 13.1107 23.1568C13.1959 23.0967 13.2509 23.0138 13.2656 22.9235L14.613 14.625H15.6605L17.0078 22.9235C17.0225 23.0138 17.0775 23.0967 17.1627 23.1568C17.2479 23.2169 17.3574 23.25 17.4707 23.25H18.8711C18.9949 23.25 19.1136 23.2105 19.2012 23.1402C19.2887 23.0698 19.3379 22.9745 19.3379 22.875L19.3381 12.0321L21.4797 2.05358V2.05351C21.5142 1.8935 21.5047 1.72936 21.4518 1.57262C21.3989 1.41589 21.3039 1.27036 21.1735 1.14626V1.14626ZM11.7289 1.81112C11.7474 1.72399 11.8037 1.64493 11.8878 1.58797C11.9719 1.53102 12.0784 1.49985 12.1885 1.5H18.8018C18.7947 1.5165 18.7891 1.53358 18.783 1.55046C18.7793 1.56063 18.775 1.57055 18.7717 1.58085C18.7617 1.61166 18.753 1.64296 18.7461 1.67487L16.6108 11.625H9.62268L11.7289 1.81112ZM3.93359 13.125C3.93388 12.9262 4.03233 12.7355 4.20735 12.5949C4.38237 12.4543 4.61967 12.3752 4.86719 12.375H11.4023C11.6499 12.3752 11.8872 12.4543 12.0622 12.5949C12.2372 12.7355 12.3357 12.9262 12.3359 13.125V13.875H3.93359V13.125ZM4.45732 22.5H3.93359V14.625H5.73593L4.45732 22.5ZM12.3929 22.5H11.8691V14.625H13.6715L12.3929 22.5ZM18.4043 22.5H17.8806L16.602 14.625H18.4043V22.5ZM20.5596 1.9262V1.92613L18.4112 11.9363C18.4067 11.9573 18.4045 11.9786 18.4045 12V13.875H13.2695V13.125C13.2698 12.8616 13.1831 12.6028 13.0183 12.375H17.0041C17.1141 12.3751 17.2207 12.3438 17.3049 12.2869C17.3891 12.2299 17.4455 12.1509 17.4641 12.0637L19.6662 1.80217C19.6842 1.7175 19.7389 1.64069 19.8207 1.58538C19.9025 1.53006 20.006 1.49981 20.113 1.5C20.179 1.50002 20.2443 1.51163 20.3042 1.53402C20.3641 1.55642 20.4171 1.58905 20.4597 1.62965C20.5022 1.67025 20.5332 1.71782 20.5505 1.76905C20.5677 1.82027 20.5709 1.87391 20.5596 1.9262V1.9262Z" fill="black"/>
</svg>
