<svg width="24" height="24" viewBox="0 0 24 24" fill="none" xmlns="http://www.w3.org/2000/svg">
<path fill-rule="evenodd" clip-rule="evenodd" d="M12.606 2.25105C12.2712 1.91632 11.7286 1.91632 11.3939 2.25105L6.16928 7.47554C5.83454 7.81027 5.83454 8.35299 6.16928 8.68772C6.50402 9.02246 7.04677 9.02246 7.38151 8.68772L11.9999 4.06932L16.6183 8.68772C16.953 9.02246 17.4958 9.02246 17.8305 8.68772C18.1652 8.35299 18.1652 7.81027 17.8305 7.47554L12.606 2.25105Z" fill="#1E1D20"/>
<path fill-rule="evenodd" clip-rule="evenodd" d="M12 3.30609C11.5267 3.30609 11.1429 3.68984 11.1429 4.16323V14.6122C11.1429 15.0856 11.5267 15.4693 12 15.4693C12.4734 15.4693 12.8572 15.0856 12.8572 14.6122V4.16323C12.8572 3.68984 12.4734 3.30609 12 3.30609Z" fill="#1E1D20"/>
<path fill-rule="evenodd" clip-rule="evenodd" d="M21.1429 13.755C20.6695 13.755 20.2857 14.1388 20.2857 14.6121V18.8571C20.2857 19.6461 19.6461 20.2856 18.8571 20.2856H5.14285C4.35383 20.2856 3.71428 19.6461 3.71428 18.8571V14.6121C3.71428 14.1388 3.33051 13.755 2.85714 13.755C2.38377 13.755 2 14.1388 2 14.6121V18.8571C2 20.5928 3.40708 21.9999 5.14285 21.9999H18.8571C20.5929 21.9999 22 20.5928 22 18.8571V14.6121C22 14.1388 21.6162 13.755 21.1429 13.755Z" fill="#1E1D20"/>
</svg>
