<svg width="32" height="32" viewBox="0 0 32 32" fill="none" xmlns="http://www.w3.org/2000/svg">
<path d="M26.85 5.16949H26.3026C26.2068 4.94612 26.0716 4.74243 25.9039 4.56837C25.5442 4.20447 25.0574 4.00015 24.55 4H9.98333C9.10828 4.00273 8.28953 4.43919 7.78952 5.16949H6.15C5.51486 5.16949 5 5.69308 5 6.33898C5 6.98488 5.51486 7.50847 6.15 7.50847H7.3V26.6102C7.3 26.8255 7.47164 27 7.68333 27H23.0167C23.2284 27 23.4 26.8255 23.4 26.6102V25.8305H26.0833C26.295 25.8305 26.4667 25.656 26.4667 25.4407V7.50847H26.85C27.4851 7.50847 28 6.98488 28 6.33898C28 5.69308 27.4851 5.16949 26.85 5.16949ZM7.40465 5.98112C7.38203 6.06142 7.36632 6.14407 7.35137 6.22671C7.3437 6.26803 7.33258 6.30858 7.32683 6.35029C7.30939 6.47572 7.30043 6.60217 7.3 6.72881H6.15C5.9383 6.72881 5.76667 6.55427 5.76667 6.33898C5.76667 6.1237 5.9383 5.94915 6.15 5.94915H7.41155C7.40848 5.95968 7.40772 5.97059 7.40465 5.98112ZM22.6333 26.2203H8.06667V23.1017H22.6333V26.2203ZM22.6333 22.322H8.06667V20.7627H22.6333V22.322ZM22.9848 4.83034C22.9615 4.86425 22.94 4.89934 22.9189 4.93481C22.8879 4.98666 22.8591 5.03968 22.8327 5.09464C22.815 5.13363 22.7982 5.16949 22.7824 5.20808C22.7729 5.23225 22.7602 5.25408 22.7518 5.27825L22.7495 5.28137C22.7274 5.30613 22.7087 5.33361 22.6935 5.36324C22.6831 5.37683 22.6736 5.39116 22.6651 5.40612C22.6443 5.45441 22.6335 5.5066 22.6333 5.55932V19.9831H8.06667V6.72881C8.06451 6.38601 8.15426 6.0491 8.32618 5.75424C8.66807 5.15205 9.29956 4.78064 9.98333 4.77966H23.0167C23.0048 4.79564 22.996 4.81397 22.9848 4.83034ZM23.6998 5.16247C23.748 5.10848 23.8011 5.05927 23.8585 5.01551C23.8734 5.00381 23.8903 4.99485 23.9056 4.98432C23.9501 4.95328 23.9968 4.92551 24.0451 4.90129C24.0674 4.88998 24.09 4.88024 24.113 4.87088C24.1606 4.85095 24.2096 4.83438 24.2594 4.82137C24.2817 4.81553 24.3035 4.80851 24.3261 4.80422C24.3998 4.78853 24.4748 4.78029 24.55 4.77966C24.8537 4.77966 25.1452 4.90153 25.3611 5.11881C25.3769 5.13519 25.3933 5.15234 25.4071 5.16949H23.694L23.6998 5.16247ZM25.7 25.0508H23.4V7.50847H25.7V25.0508ZM26.85 6.72881H23.4V5.94915H26.85C27.0617 5.94915 27.2333 6.1237 27.2333 6.33898C27.2333 6.55427 27.0617 6.72881 26.85 6.72881Z" fill="#DFDFDB"/>
</svg>
